<svg width="291" height="47" viewBox="0 0 291 47" fill="none" xmlns="http://www.w3.org/2000/svg">
<path d="M0 23.36C0 18.88 0.896 14.8907 2.688 11.392C4.52267 7.89333 7.12533 5.184 10.496 3.264C13.8667 1.30133 17.8347 0.32 22.4 0.32C26.3253 0.32 29.824 1.06667 32.896 2.56C36.0107 4.01067 38.528 6.08 40.448 8.768C42.4107 11.456 43.712 14.592 44.352 18.176H29.376C28.6933 16.6827 27.712 15.5307 26.432 14.72C25.1947 13.8667 23.7653 13.44 22.144 13.44C19.7547 13.44 17.856 14.336 16.448 16.128C15.0827 17.92 14.4 20.3307 14.4 23.36C14.4 26.3893 15.0827 28.8 16.448 30.592C17.856 32.384 19.7547 33.28 22.144 33.28C23.7653 33.28 25.1947 32.8747 26.432 32.064C27.712 31.2107 28.6933 30.0373 29.376 28.544H44.352C43.712 32.128 42.4107 35.264 40.448 37.952C38.528 40.64 36.0107 42.7307 32.896 44.224C29.824 45.6747 26.3253 46.4 22.4 46.4C17.8347 46.4 13.8667 45.44 10.496 43.52C7.12533 41.5573 4.52267 38.8267 2.688 35.328C0.896 31.8293 0 27.84 0 23.36Z" fill="white"/>
<path d="M63.6755 35.328H77.3715V46.08H49.4675V0.768002H63.6755V35.328Z" fill="white"/>
<path d="M103.923 46.528C99.6558 46.528 95.7305 45.5253 92.1465 43.52C88.6052 41.5147 85.7892 38.7413 83.6985 35.2C81.6078 31.6587 80.5625 27.6693 80.5625 23.232C80.5625 18.7947 81.6078 14.8053 83.6985 11.264C85.7892 7.72267 88.6052 4.97067 92.1465 3.008C95.7305 1.00267 99.6558 0 103.923 0C108.189 0 112.093 1.00267 115.634 3.008C119.176 4.97067 121.97 7.72267 124.019 11.264C126.109 14.8053 127.155 18.7947 127.155 23.232C127.155 27.6693 126.109 31.6587 124.019 35.2C121.97 38.7413 119.155 41.5147 115.571 43.52C112.029 45.5253 108.146 46.528 103.923 46.528ZM103.923 33.28C106.739 33.28 108.915 32.384 110.451 30.592C111.987 28.7573 112.755 26.304 112.755 23.232C112.755 20.1173 111.987 17.664 110.451 15.872C108.915 14.0373 106.739 13.12 103.923 13.12C101.064 13.12 98.8665 14.0373 97.3305 15.872C95.7945 17.664 95.0265 20.1173 95.0265 23.232C95.0265 26.304 95.7945 28.7573 97.3305 30.592C98.8665 32.384 101.064 33.28 103.923 33.28Z" fill="white"/>
<path d="M167.864 0.768002V12.032H155.832V46.08H141.624V12.032H129.72V0.768002H167.864Z" fill="white"/>
<path d="M213.637 0.768002V46.08H199.43V28.416H185.926V46.08H171.717V0.768002H185.926V17.088H199.43V0.768002H213.637Z" fill="white"/>
<path d="M234.238 12.096V17.664H248.318V28.352H234.238V34.752H250.238V46.08H220.03V0.768002H250.238V12.096H234.238Z" fill="white"/>
<path d="M273.32 46.528C267.902 46.528 263.422 45.2693 259.88 42.752C256.382 40.192 254.483 36.4587 254.184 31.552H269.289C269.502 34.1547 270.654 35.456 272.745 35.456C273.513 35.456 274.152 35.2853 274.664 34.944C275.219 34.56 275.496 33.984 275.496 33.216C275.496 32.1493 274.921 31.296 273.768 30.656C272.616 29.9733 270.824 29.2053 268.392 28.352C265.491 27.328 263.081 26.3253 261.16 25.344C259.283 24.3627 257.662 22.9333 256.297 21.056C254.931 19.1787 254.27 16.768 254.312 13.824C254.312 10.88 255.059 8.384 256.552 6.336C258.089 4.24533 260.158 2.66667 262.76 1.6C265.406 0.533333 268.371 0 271.656 0C277.203 0 281.598 1.28 284.841 3.84C288.126 6.4 289.854 10.0053 290.025 14.656H274.729C274.686 13.376 274.366 12.4587 273.768 11.904C273.171 11.3493 272.446 11.072 271.592 11.072C270.995 11.072 270.505 11.2853 270.121 11.712C269.737 12.096 269.544 12.6507 269.544 13.376C269.544 14.4 270.099 15.2533 271.208 15.936C272.361 16.576 274.174 17.3653 276.648 18.304C279.507 19.3707 281.854 20.3947 283.689 21.376C285.566 22.3573 287.187 23.7227 288.552 25.472C289.918 27.2213 290.6 29.4187 290.6 32.064C290.6 34.8373 289.918 37.3333 288.552 39.552C287.187 41.728 285.203 43.4347 282.6 44.672C279.998 45.9093 276.904 46.528 273.32 46.528Z" fill="white"/>
</svg>
